# xmcd
#
# Track frame offsets:
#	183
#	31470
#	55058
#	103483
#	124795
#	160383
#	186033
#	220808
#	263170
#	281683
#	300670
#	326445
#
# Disc length: 4654
#
# Revision: 2
# Processed by: cddbd v1.5.1PL0 Copyright (c) Steve Scherf et al.
# Submitted via: audiograbber 1.82.01
# Normalized: r1:DSETVAR1
#
DISCID=af122c0c
DTITLE=Various Artist - Classic Funk
DYEAR=1993
DGENRE=Funk
TTITLE0=Gwen Guthrie - It Should Have Been You
TTITLE1=Donna Summer - Could It Be Magic
TTITLE2=Gary Byrd and G.B. Experience - The Crown
TTITLE3=Kool and The Gang - Get Down On It
TTITLE4=Central Line - Walking Into Sunshine
TTITLE5=Thelma Houston - Don't Leave Me This Way
TTITLE6=Kurtis Blow - The Breaks
TTITLE7=James Brown - Body Heat
TTITLE8=Mike and Brenda Sutton - We'll Make It
TTITLE9=Stephanie Mills - You Can't Run From My Love
TTITLE10=Gloria Gaynor - Walk On By
TTITLE11=Klassic - Somebody's Loving You
EXTD=A Sky Rock Compilation from France
EXTT0=
EXTT1=
EXTT2=
EXTT3=
EXTT4=
EXTT5=
EXTT6=
EXTT7=
EXTT8=
EXTT9=
EXTT10=
EXTT11=
PLAYORDER=
